<?xml version="1.0" encoding="utf-8"?>
<!-- Generator: Adobe Illustrator 27.3.1, SVG Export Plug-In . SVG Version: 6.00 Build 0)  -->
<svg version="1.1" id="Layer_1" xmlns="http://www.w3.org/2000/svg" xmlns:xlink="http://www.w3.org/1999/xlink" x="0px" y="0px"
	 viewBox="0 0 595.28 379.59" style="enable-background:new 0 0 595.28 379.59;" xml:space="preserve">
<style type="text/css">
	.st0{fill:#3463AC;}
</style>
<g>
	<path class="st0" d="M226.89,212.91c0,18.39-10.11,32.31-45.06,32.31H84.4v-67.43h98.08c4.97,0,9.61-1.82,9.61-7.46
		c0-5.47-4.8-7.12-9.61-7.12H84.4v-28.83h96.59c26.51,0,43.57,10.27,43.57,30.65c0,13.09-7.46,20.38-15.08,23.19
		C219.1,191.04,226.89,199.65,226.89,212.91z M118.87,201.47v15.24h63.12c7.46,0,10.6-2.65,10.6-7.79c0-4.81-3.15-7.46-10.6-7.46
		H118.87z"/>
	<path class="st0" d="M381.8,134.37l-22.2,28.83H320v82.01h-34.3V163.2h-50.52v-28.83H381.8z"/>
	<path class="st0" d="M456.36,216.88h-57.99v28.33h-34.13v-56.66h95.43c10.6,0,16.73-5.14,16.73-12.76
		c0-7.79-6.13-12.59-16.73-12.59h-89.43l22.7-28.83h63.58c34.3,0,54.34,16.9,54.34,41.59C510.87,200.48,490.83,216.88,456.36,216.88
		z"/>
</g>
</svg>
